<mxfile host="app.diagrams.net" modified="2023-11-19T15:54:29.629Z" agent="Mozilla/5.0 (Macintosh; Intel Mac OS X 10_15_7) AppleWebKit/537.36 (KHTML, like Gecko) Chrome/119.0.0.0 Safari/537.36" etag="1JBmmTBNgdOw3vK6AK2g" version="22.1.3" type="github">
  <diagram name="第 1 页" id="Bpt3EHnc-XG6woePa3AU">
    <mxGraphModel dx="833" dy="1226" grid="1" gridSize="10" guides="1" tooltips="1" connect="1" arrows="1" fold="1" page="1" pageScale="1" pageWidth="827" pageHeight="1169" math="0" shadow="0">
      <root>
        <mxCell id="0" />
        <mxCell id="1" parent="0" />
        <mxCell id="xj7ccxpRjcmuDJTjEku6-1" value="&lt;font style=&quot;font-size: 17px;&quot;&gt;About 14,000 people fled their homes at the weekend after a local tsunami warning was issued. &lt;/font&gt;" style="text;whiteSpace=wrap;html=1;" vertex="1" parent="1">
          <mxGeometry x="134" y="70" width="560" height="40" as="geometry" />
        </mxCell>
        <mxCell id="xj7ccxpRjcmuDJTjEku6-5" value="" style="rounded=0;orthogonalLoop=1;jettySize=auto;html=1;" edge="1" parent="1" source="xj7ccxpRjcmuDJTjEku6-2" target="xj7ccxpRjcmuDJTjEku6-4">
          <mxGeometry relative="1" as="geometry" />
        </mxCell>
        <mxCell id="xj7ccxpRjcmuDJTjEku6-6" value="ARG0" style="edgeLabel;html=1;align=center;verticalAlign=middle;resizable=0;points=[];" vertex="1" connectable="0" parent="xj7ccxpRjcmuDJTjEku6-5">
          <mxGeometry y="1" relative="1" as="geometry">
            <mxPoint x="21" as="offset" />
          </mxGeometry>
        </mxCell>
        <mxCell id="xj7ccxpRjcmuDJTjEku6-8" value="" style="rounded=0;orthogonalLoop=1;jettySize=auto;html=1;" edge="1" parent="1" source="xj7ccxpRjcmuDJTjEku6-2" target="xj7ccxpRjcmuDJTjEku6-7">
          <mxGeometry relative="1" as="geometry" />
        </mxCell>
        <mxCell id="xj7ccxpRjcmuDJTjEku6-9" value="ARG1" style="edgeLabel;html=1;align=center;verticalAlign=middle;resizable=0;points=[];" vertex="1" connectable="0" parent="xj7ccxpRjcmuDJTjEku6-8">
          <mxGeometry x="-0.05" y="2" relative="1" as="geometry">
            <mxPoint x="3" y="-12" as="offset" />
          </mxGeometry>
        </mxCell>
        <mxCell id="xj7ccxpRjcmuDJTjEku6-11" value="" style="rounded=0;orthogonalLoop=1;jettySize=auto;html=1;" edge="1" parent="1" source="xj7ccxpRjcmuDJTjEku6-2" target="xj7ccxpRjcmuDJTjEku6-10">
          <mxGeometry relative="1" as="geometry" />
        </mxCell>
        <mxCell id="xj7ccxpRjcmuDJTjEku6-12" value="time" style="edgeLabel;html=1;align=center;verticalAlign=middle;resizable=0;points=[];" vertex="1" connectable="0" parent="xj7ccxpRjcmuDJTjEku6-11">
          <mxGeometry x="-0.4" y="-1" relative="1" as="geometry">
            <mxPoint x="11" y="-11" as="offset" />
          </mxGeometry>
        </mxCell>
        <mxCell id="xj7ccxpRjcmuDJTjEku6-14" value="" style="rounded=0;orthogonalLoop=1;jettySize=auto;html=1;" edge="1" parent="1" source="xj7ccxpRjcmuDJTjEku6-2" target="xj7ccxpRjcmuDJTjEku6-13">
          <mxGeometry relative="1" as="geometry" />
        </mxCell>
        <mxCell id="xj7ccxpRjcmuDJTjEku6-15" value="condition" style="edgeLabel;html=1;align=center;verticalAlign=middle;resizable=0;points=[];" vertex="1" connectable="0" parent="xj7ccxpRjcmuDJTjEku6-14">
          <mxGeometry x="-0.175" y="1" relative="1" as="geometry">
            <mxPoint x="29" as="offset" />
          </mxGeometry>
        </mxCell>
        <mxCell id="xj7ccxpRjcmuDJTjEku6-2" value="flee-01" style="ellipse;whiteSpace=wrap;html=1;" vertex="1" parent="1">
          <mxGeometry x="335" y="280" width="90" height="40" as="geometry" />
        </mxCell>
        <mxCell id="xj7ccxpRjcmuDJTjEku6-4" value="person&lt;br&gt;quant: about 14000" style="ellipse;whiteSpace=wrap;html=1;" vertex="1" parent="1">
          <mxGeometry x="390" y="170" width="140" height="40" as="geometry" />
        </mxCell>
        <mxCell id="xj7ccxpRjcmuDJTjEku6-7" value="home&lt;br&gt;poss:p" style="ellipse;whiteSpace=wrap;html=1;" vertex="1" parent="1">
          <mxGeometry x="505" y="200" width="90" height="40" as="geometry" />
        </mxCell>
        <mxCell id="xj7ccxpRjcmuDJTjEku6-10" value="weekend" style="ellipse;whiteSpace=wrap;html=1;" vertex="1" parent="1">
          <mxGeometry x="505" y="300" width="90" height="40" as="geometry" />
        </mxCell>
        <mxCell id="xj7ccxpRjcmuDJTjEku6-17" value="" style="rounded=0;orthogonalLoop=1;jettySize=auto;html=1;" edge="1" parent="1" source="xj7ccxpRjcmuDJTjEku6-13" target="xj7ccxpRjcmuDJTjEku6-16">
          <mxGeometry relative="1" as="geometry" />
        </mxCell>
        <mxCell id="xj7ccxpRjcmuDJTjEku6-18" value="ARG1" style="edgeLabel;html=1;align=center;verticalAlign=middle;resizable=0;points=[];" vertex="1" connectable="0" parent="xj7ccxpRjcmuDJTjEku6-17">
          <mxGeometry x="-0.3" relative="1" as="geometry">
            <mxPoint x="7" y="-10" as="offset" />
          </mxGeometry>
        </mxCell>
        <mxCell id="xj7ccxpRjcmuDJTjEku6-13" value="issue-01" style="ellipse;whiteSpace=wrap;html=1;" vertex="1" parent="1">
          <mxGeometry x="425" y="450" width="90" height="40" as="geometry" />
        </mxCell>
        <mxCell id="xj7ccxpRjcmuDJTjEku6-20" value="mod" style="rounded=0;orthogonalLoop=1;jettySize=auto;html=1;" edge="1" parent="1" source="xj7ccxpRjcmuDJTjEku6-16" target="xj7ccxpRjcmuDJTjEku6-19">
          <mxGeometry x="0.125" y="10" relative="1" as="geometry">
            <mxPoint as="offset" />
          </mxGeometry>
        </mxCell>
        <mxCell id="xj7ccxpRjcmuDJTjEku6-22" value="" style="rounded=0;orthogonalLoop=1;jettySize=auto;html=1;" edge="1" parent="1" source="xj7ccxpRjcmuDJTjEku6-16" target="xj7ccxpRjcmuDJTjEku6-21">
          <mxGeometry relative="1" as="geometry" />
        </mxCell>
        <mxCell id="xj7ccxpRjcmuDJTjEku6-23" value="mod" style="edgeLabel;html=1;align=center;verticalAlign=middle;resizable=0;points=[];" vertex="1" connectable="0" parent="xj7ccxpRjcmuDJTjEku6-22">
          <mxGeometry x="-0.175" y="-3" relative="1" as="geometry">
            <mxPoint x="23" as="offset" />
          </mxGeometry>
        </mxCell>
        <mxCell id="xj7ccxpRjcmuDJTjEku6-16" value="warning" style="ellipse;whiteSpace=wrap;html=1;" vertex="1" parent="1">
          <mxGeometry x="550" y="400" width="90" height="40" as="geometry" />
        </mxCell>
        <mxCell id="xj7ccxpRjcmuDJTjEku6-19" value="tsunami" style="ellipse;whiteSpace=wrap;html=1;" vertex="1" parent="1">
          <mxGeometry x="605" y="350" width="90" height="40" as="geometry" />
        </mxCell>
        <mxCell id="xj7ccxpRjcmuDJTjEku6-21" value="local" style="ellipse;whiteSpace=wrap;html=1;" vertex="1" parent="1">
          <mxGeometry x="605" y="450" width="90" height="40" as="geometry" />
        </mxCell>
      </root>
    </mxGraphModel>
  </diagram>
</mxfile>
